<mxfile host="app.diagrams.net" modified="2023-11-18T02:52:09.874Z" agent="Mozilla/5.0 (Windows NT 10.0; Win64; x64; rv:109.0) Gecko/20100101 Firefox/119.0" etag="sDAxZQw_0kXjua7z21JS" version="22.1.2" type="device">
  <diagram name="Page-1" id="edf60f1a-56cd-e834-aa8a-f176f3a09ee4">
    <mxGraphModel dx="1461" dy="733" grid="1" gridSize="10" guides="1" tooltips="1" connect="1" arrows="1" fold="1" page="1" pageScale="1" pageWidth="1100" pageHeight="850" background="none" math="0" shadow="0">
      <root>
        <mxCell id="0" />
        <mxCell id="1" parent="0" />
        <mxCell id="hsjAOOVRgnUJ8HUQptiA-7" style="edgeStyle=orthogonalEdgeStyle;rounded=0;orthogonalLoop=1;jettySize=auto;html=1;exitX=0.5;exitY=1;exitDx=0;exitDy=0;" parent="1" source="hsjAOOVRgnUJ8HUQptiA-1" target="hsjAOOVRgnUJ8HUQptiA-4" edge="1">
          <mxGeometry relative="1" as="geometry" />
        </mxCell>
        <mxCell id="hsjAOOVRgnUJ8HUQptiA-1" value="&lt;font style=&quot;font-size: 14px;&quot;&gt;开始&lt;/font&gt;" style="rounded=1;whiteSpace=wrap;html=1;" parent="1" vertex="1">
          <mxGeometry x="40" y="40" width="120" height="60" as="geometry" />
        </mxCell>
        <mxCell id="hsjAOOVRgnUJ8HUQptiA-2" value="&lt;font style=&quot;font-size: 14px;&quot;&gt;main函数&lt;/font&gt;：" style="text;html=1;align=center;verticalAlign=middle;resizable=0;points=[];autosize=1;strokeColor=none;fillColor=none;" parent="1" vertex="1">
          <mxGeometry x="55" width="90" height="30" as="geometry" />
        </mxCell>
        <mxCell id="hsjAOOVRgnUJ8HUQptiA-9" style="edgeStyle=orthogonalEdgeStyle;rounded=0;orthogonalLoop=1;jettySize=auto;html=1;exitX=0.5;exitY=1;exitDx=0;exitDy=0;entryX=0.5;entryY=0;entryDx=0;entryDy=0;" parent="1" source="hsjAOOVRgnUJ8HUQptiA-3" target="hsjAOOVRgnUJ8HUQptiA-5" edge="1">
          <mxGeometry relative="1" as="geometry" />
        </mxCell>
        <mxCell id="hsjAOOVRgnUJ8HUQptiA-3" value="&lt;div&gt;&lt;font style=&quot;font-size: 14px;&quot;&gt;输入n（文件总数）&lt;/font&gt;&lt;/div&gt;" style="shape=parallelogram;perimeter=parallelogramPerimeter;whiteSpace=wrap;html=1;fixedSize=1;" parent="1" vertex="1">
          <mxGeometry x="30" y="220" width="140" height="60" as="geometry" />
        </mxCell>
        <mxCell id="hsjAOOVRgnUJ8HUQptiA-8" style="edgeStyle=orthogonalEdgeStyle;rounded=0;orthogonalLoop=1;jettySize=auto;html=1;exitX=0.5;exitY=1;exitDx=0;exitDy=0;entryX=0.5;entryY=0;entryDx=0;entryDy=0;" parent="1" source="hsjAOOVRgnUJ8HUQptiA-4" target="hsjAOOVRgnUJ8HUQptiA-3" edge="1">
          <mxGeometry relative="1" as="geometry" />
        </mxCell>
        <mxCell id="hsjAOOVRgnUJ8HUQptiA-4" value="&lt;font style=&quot;font-size: 14px;&quot;&gt;定义n, m, i, n1, n2变量&lt;/font&gt;" style="rounded=0;whiteSpace=wrap;html=1;" parent="1" vertex="1">
          <mxGeometry x="40" y="130" width="120" height="60" as="geometry" />
        </mxCell>
        <mxCell id="hsjAOOVRgnUJ8HUQptiA-15" style="edgeStyle=orthogonalEdgeStyle;rounded=0;orthogonalLoop=1;jettySize=auto;html=1;exitX=1;exitY=0.5;exitDx=0;exitDy=0;" parent="1" source="hsjAOOVRgnUJ8HUQptiA-5" target="hsjAOOVRgnUJ8HUQptiA-14" edge="1">
          <mxGeometry relative="1" as="geometry">
            <Array as="points">
              <mxPoint x="180" y="345" />
              <mxPoint x="180" y="530" />
              <mxPoint x="107" y="530" />
            </Array>
          </mxGeometry>
        </mxCell>
        <mxCell id="hsjAOOVRgnUJ8HUQptiA-16" value="&lt;font style=&quot;font-size: 14px;&quot;&gt;false&lt;/font&gt;" style="edgeLabel;html=1;align=center;verticalAlign=middle;resizable=0;points=[];" parent="hsjAOOVRgnUJ8HUQptiA-15" vertex="1" connectable="0">
          <mxGeometry x="-0.9463" y="1" relative="1" as="geometry">
            <mxPoint x="2" y="-14" as="offset" />
          </mxGeometry>
        </mxCell>
        <mxCell id="hsjAOOVRgnUJ8HUQptiA-5" value="&lt;font style=&quot;font-size: 14px;&quot;&gt;i &amp;lt; n&lt;/font&gt;" style="rhombus;whiteSpace=wrap;html=1;" parent="1" vertex="1">
          <mxGeometry x="40" y="305" width="120" height="80" as="geometry" />
        </mxCell>
        <mxCell id="hsjAOOVRgnUJ8HUQptiA-13" style="edgeStyle=orthogonalEdgeStyle;rounded=0;orthogonalLoop=1;jettySize=auto;html=1;exitX=0.5;exitY=1;exitDx=0;exitDy=0;" parent="1" source="hsjAOOVRgnUJ8HUQptiA-6" edge="1">
          <mxGeometry relative="1" as="geometry">
            <mxPoint x="100" y="290" as="targetPoint" />
            <Array as="points">
              <mxPoint x="107" y="510" />
              <mxPoint x="20" y="510" />
              <mxPoint x="20" y="290" />
            </Array>
          </mxGeometry>
        </mxCell>
        <mxCell id="hsjAOOVRgnUJ8HUQptiA-6" value="&lt;div&gt;&lt;font style=&quot;font-size: 14px;&quot;&gt;调用 read_file 函数&lt;/font&gt;&lt;/div&gt;&lt;div&gt;&lt;font style=&quot;font-size: 14px;&quot;&gt;读入第i+1个文件的内容&lt;/font&gt;&lt;br&gt;&lt;/div&gt;" style="rounded=0;whiteSpace=wrap;html=1;" parent="1" vertex="1">
          <mxGeometry x="42" y="430" width="130" height="60" as="geometry" />
        </mxCell>
        <mxCell id="hsjAOOVRgnUJ8HUQptiA-11" style="edgeStyle=orthogonalEdgeStyle;rounded=0;orthogonalLoop=1;jettySize=auto;html=1;exitX=0.5;exitY=1;exitDx=0;exitDy=0;entryX=0.446;entryY=-0.033;entryDx=0;entryDy=0;entryPerimeter=0;" parent="1" source="hsjAOOVRgnUJ8HUQptiA-5" target="hsjAOOVRgnUJ8HUQptiA-6" edge="1">
          <mxGeometry relative="1" as="geometry" />
        </mxCell>
        <mxCell id="hsjAOOVRgnUJ8HUQptiA-12" value="&lt;font style=&quot;font-size: 14px;&quot;&gt;true&lt;/font&gt;" style="edgeLabel;html=1;align=center;verticalAlign=middle;resizable=0;points=[];" parent="hsjAOOVRgnUJ8HUQptiA-11" vertex="1" connectable="0">
          <mxGeometry x="-0.3492" y="2" relative="1" as="geometry">
            <mxPoint x="18" as="offset" />
          </mxGeometry>
        </mxCell>
        <mxCell id="hsjAOOVRgnUJ8HUQptiA-18" style="edgeStyle=orthogonalEdgeStyle;rounded=0;orthogonalLoop=1;jettySize=auto;html=1;exitX=0.5;exitY=1;exitDx=0;exitDy=0;" parent="1" source="hsjAOOVRgnUJ8HUQptiA-14" target="hsjAOOVRgnUJ8HUQptiA-17" edge="1">
          <mxGeometry relative="1" as="geometry" />
        </mxCell>
        <mxCell id="hsjAOOVRgnUJ8HUQptiA-14" value="输入m（查询总数）" style="shape=parallelogram;perimeter=parallelogramPerimeter;whiteSpace=wrap;html=1;fixedSize=1;" parent="1" vertex="1">
          <mxGeometry x="30.5" y="550" width="153" height="60" as="geometry" />
        </mxCell>
        <mxCell id="hsjAOOVRgnUJ8HUQptiA-22" style="edgeStyle=orthogonalEdgeStyle;rounded=0;orthogonalLoop=1;jettySize=auto;html=1;exitX=0.5;exitY=1;exitDx=0;exitDy=0;entryX=0.5;entryY=0;entryDx=0;entryDy=0;" parent="1" source="hsjAOOVRgnUJ8HUQptiA-17" target="hsjAOOVRgnUJ8HUQptiA-20" edge="1">
          <mxGeometry relative="1" as="geometry" />
        </mxCell>
        <mxCell id="hsjAOOVRgnUJ8HUQptiA-24" value="&lt;font style=&quot;font-size: 14px;&quot;&gt;true&lt;/font&gt;" style="edgeLabel;html=1;align=center;verticalAlign=middle;resizable=0;points=[];" parent="hsjAOOVRgnUJ8HUQptiA-22" vertex="1" connectable="0">
          <mxGeometry x="-0.4" y="-1" relative="1" as="geometry">
            <mxPoint x="14" as="offset" />
          </mxGeometry>
        </mxCell>
        <mxCell id="hsjAOOVRgnUJ8HUQptiA-27" style="edgeStyle=orthogonalEdgeStyle;rounded=0;orthogonalLoop=1;jettySize=auto;html=1;exitX=1;exitY=0.5;exitDx=0;exitDy=0;" parent="1" source="hsjAOOVRgnUJ8HUQptiA-17" target="hsjAOOVRgnUJ8HUQptiA-26" edge="1">
          <mxGeometry relative="1" as="geometry">
            <Array as="points">
              <mxPoint x="210" y="690" />
              <mxPoint x="210" y="940" />
              <mxPoint x="107" y="940" />
            </Array>
          </mxGeometry>
        </mxCell>
        <mxCell id="hsjAOOVRgnUJ8HUQptiA-28" value="&lt;font style=&quot;font-size: 14px;&quot;&gt;false&lt;/font&gt;" style="edgeLabel;html=1;align=center;verticalAlign=middle;resizable=0;points=[];" parent="hsjAOOVRgnUJ8HUQptiA-27" vertex="1" connectable="0">
          <mxGeometry x="-0.952" relative="1" as="geometry">
            <mxPoint y="-10" as="offset" />
          </mxGeometry>
        </mxCell>
        <mxCell id="hsjAOOVRgnUJ8HUQptiA-17" value="&lt;font style=&quot;font-size: 14px;&quot;&gt;i &amp;lt; m&lt;/font&gt;" style="rhombus;whiteSpace=wrap;html=1;" parent="1" vertex="1">
          <mxGeometry x="32.25" y="650" width="149.5" height="80" as="geometry" />
        </mxCell>
        <mxCell id="hsjAOOVRgnUJ8HUQptiA-23" style="edgeStyle=orthogonalEdgeStyle;rounded=0;orthogonalLoop=1;jettySize=auto;html=1;exitX=0.5;exitY=1;exitDx=0;exitDy=0;entryX=0.5;entryY=0;entryDx=0;entryDy=0;" parent="1" source="hsjAOOVRgnUJ8HUQptiA-20" target="hsjAOOVRgnUJ8HUQptiA-21" edge="1">
          <mxGeometry relative="1" as="geometry" />
        </mxCell>
        <mxCell id="hsjAOOVRgnUJ8HUQptiA-20" value="&lt;div&gt;&lt;font style=&quot;font-size: 14px;&quot;&gt;输入n1,n2&lt;/font&gt;&lt;/div&gt;&lt;div&gt;&lt;font style=&quot;font-size: 14px;&quot;&gt;（查询的两个文件）&lt;/font&gt;&lt;/div&gt;" style="shape=parallelogram;perimeter=parallelogramPerimeter;whiteSpace=wrap;html=1;fixedSize=1;" parent="1" vertex="1">
          <mxGeometry x="47" y="760" width="120" height="60" as="geometry" />
        </mxCell>
        <mxCell id="hsjAOOVRgnUJ8HUQptiA-25" style="edgeStyle=orthogonalEdgeStyle;rounded=0;orthogonalLoop=1;jettySize=auto;html=1;exitX=0.5;exitY=1;exitDx=0;exitDy=0;" parent="1" source="hsjAOOVRgnUJ8HUQptiA-21" edge="1">
          <mxGeometry relative="1" as="geometry">
            <Array as="points">
              <mxPoint x="107" y="920" />
              <mxPoint x="12" y="920" />
              <mxPoint x="12" y="630" />
              <mxPoint x="32" y="630" />
            </Array>
            <mxPoint x="110" y="630" as="targetPoint" />
          </mxGeometry>
        </mxCell>
        <mxCell id="hsjAOOVRgnUJ8HUQptiA-21" value="&lt;font style=&quot;font-size: 14px;&quot;&gt;调用countRepeat函数&lt;/font&gt;" style="rounded=0;whiteSpace=wrap;html=1;" parent="1" vertex="1">
          <mxGeometry x="47" y="840" width="120" height="60" as="geometry" />
        </mxCell>
        <mxCell id="hsjAOOVRgnUJ8HUQptiA-26" value="&lt;font style=&quot;font-size: 14px;&quot;&gt;结束&lt;/font&gt;" style="rounded=1;whiteSpace=wrap;html=1;" parent="1" vertex="1">
          <mxGeometry x="50" y="1010" width="120" height="60" as="geometry" />
        </mxCell>
        <mxCell id="hsjAOOVRgnUJ8HUQptiA-29" value="&lt;font style=&quot;font-size: 14px;&quot;&gt;read_file函数&lt;/font&gt;：" style="text;html=1;align=center;verticalAlign=middle;resizable=0;points=[];autosize=1;strokeColor=none;fillColor=none;" parent="1" vertex="1">
          <mxGeometry x="290" width="120" height="30" as="geometry" />
        </mxCell>
        <mxCell id="hsjAOOVRgnUJ8HUQptiA-41" style="edgeStyle=orthogonalEdgeStyle;rounded=0;orthogonalLoop=1;jettySize=auto;html=1;exitX=0.5;exitY=1;exitDx=0;exitDy=0;entryX=0.5;entryY=0;entryDx=0;entryDy=0;" parent="1" source="hsjAOOVRgnUJ8HUQptiA-30" target="hsjAOOVRgnUJ8HUQptiA-31" edge="1">
          <mxGeometry relative="1" as="geometry" />
        </mxCell>
        <mxCell id="hsjAOOVRgnUJ8HUQptiA-30" value="&lt;font style=&quot;font-size: 14px;&quot;&gt;开始&lt;/font&gt;" style="rounded=1;whiteSpace=wrap;html=1;" parent="1" vertex="1">
          <mxGeometry x="280" y="40" width="120" height="60" as="geometry" />
        </mxCell>
        <mxCell id="hsjAOOVRgnUJ8HUQptiA-42" style="edgeStyle=orthogonalEdgeStyle;rounded=0;orthogonalLoop=1;jettySize=auto;html=1;exitX=0.5;exitY=1;exitDx=0;exitDy=0;entryX=0.5;entryY=0;entryDx=0;entryDy=0;" parent="1" source="hsjAOOVRgnUJ8HUQptiA-31" target="hsjAOOVRgnUJ8HUQptiA-32" edge="1">
          <mxGeometry relative="1" as="geometry" />
        </mxCell>
        <mxCell id="hsjAOOVRgnUJ8HUQptiA-31" value="&lt;font style=&quot;font-size: 14px;&quot;&gt;接收形参index（第几个文件）&lt;/font&gt;" style="rounded=0;whiteSpace=wrap;html=1;" parent="1" vertex="1">
          <mxGeometry x="280" y="130" width="120" height="60" as="geometry" />
        </mxCell>
        <mxCell id="hsjAOOVRgnUJ8HUQptiA-43" style="edgeStyle=orthogonalEdgeStyle;rounded=0;orthogonalLoop=1;jettySize=auto;html=1;exitX=0.5;exitY=1;exitDx=0;exitDy=0;entryX=0.5;entryY=0;entryDx=0;entryDy=0;" parent="1" source="hsjAOOVRgnUJ8HUQptiA-32" target="hsjAOOVRgnUJ8HUQptiA-33" edge="1">
          <mxGeometry relative="1" as="geometry" />
        </mxCell>
        <mxCell id="hsjAOOVRgnUJ8HUQptiA-32" value="&lt;font style=&quot;font-size: 14px;&quot;&gt;输入字符c&lt;/font&gt;" style="shape=parallelogram;perimeter=parallelogramPerimeter;whiteSpace=wrap;html=1;fixedSize=1;" parent="1" vertex="1">
          <mxGeometry x="280" y="220" width="120" height="60" as="geometry" />
        </mxCell>
        <mxCell id="hsjAOOVRgnUJ8HUQptiA-44" style="edgeStyle=orthogonalEdgeStyle;rounded=0;orthogonalLoop=1;jettySize=auto;html=1;exitX=0.5;exitY=1;exitDx=0;exitDy=0;entryX=0.5;entryY=0;entryDx=0;entryDy=0;" parent="1" source="hsjAOOVRgnUJ8HUQptiA-33" target="hsjAOOVRgnUJ8HUQptiA-34" edge="1">
          <mxGeometry relative="1" as="geometry" />
        </mxCell>
        <mxCell id="hsjAOOVRgnUJ8HUQptiA-45" value="&lt;font style=&quot;font-size: 14px;&quot;&gt;true&lt;/font&gt;" style="edgeLabel;html=1;align=center;verticalAlign=middle;resizable=0;points=[];" parent="hsjAOOVRgnUJ8HUQptiA-44" vertex="1" connectable="0">
          <mxGeometry x="-0.2" y="2" relative="1" as="geometry">
            <mxPoint x="18" as="offset" />
          </mxGeometry>
        </mxCell>
        <mxCell id="hsjAOOVRgnUJ8HUQptiA-56" style="edgeStyle=orthogonalEdgeStyle;rounded=0;orthogonalLoop=1;jettySize=auto;html=1;exitX=1;exitY=0.5;exitDx=0;exitDy=0;" parent="1" source="hsjAOOVRgnUJ8HUQptiA-33" target="hsjAOOVRgnUJ8HUQptiA-55" edge="1">
          <mxGeometry relative="1" as="geometry">
            <Array as="points">
              <mxPoint x="470" y="350" />
              <mxPoint x="470" y="980" />
              <mxPoint x="350" y="980" />
            </Array>
          </mxGeometry>
        </mxCell>
        <mxCell id="hsjAOOVRgnUJ8HUQptiA-57" value="&lt;font style=&quot;font-size: 14px;&quot;&gt;false&lt;/font&gt;" style="edgeLabel;html=1;align=center;verticalAlign=middle;resizable=0;points=[];" parent="hsjAOOVRgnUJ8HUQptiA-56" vertex="1" connectable="0">
          <mxGeometry x="-0.96" y="-1" relative="1" as="geometry">
            <mxPoint x="3" y="-11" as="offset" />
          </mxGeometry>
        </mxCell>
        <mxCell id="hsjAOOVRgnUJ8HUQptiA-33" value="&lt;font style=&quot;font-size: 14px;&quot;&gt;c != &#39;#&#39;&lt;/font&gt;" style="rhombus;whiteSpace=wrap;html=1;" parent="1" vertex="1">
          <mxGeometry x="280" y="310" width="120" height="80" as="geometry" />
        </mxCell>
        <mxCell id="hsjAOOVRgnUJ8HUQptiA-46" style="edgeStyle=orthogonalEdgeStyle;rounded=0;orthogonalLoop=1;jettySize=auto;html=1;exitX=0.5;exitY=1;exitDx=0;exitDy=0;entryX=0.5;entryY=0;entryDx=0;entryDy=0;" parent="1" source="hsjAOOVRgnUJ8HUQptiA-34" target="hsjAOOVRgnUJ8HUQptiA-36" edge="1">
          <mxGeometry relative="1" as="geometry" />
        </mxCell>
        <mxCell id="hsjAOOVRgnUJ8HUQptiA-34" value="&lt;font style=&quot;font-size: 14px;&quot;&gt;初始化s和k&lt;/font&gt;" style="rounded=0;whiteSpace=wrap;html=1;" parent="1" vertex="1">
          <mxGeometry x="280" y="410" width="120" height="60" as="geometry" />
        </mxCell>
        <mxCell id="hsjAOOVRgnUJ8HUQptiA-47" style="edgeStyle=orthogonalEdgeStyle;rounded=0;orthogonalLoop=1;jettySize=auto;html=1;exitX=0.5;exitY=1;exitDx=0;exitDy=0;entryX=0.5;entryY=0;entryDx=0;entryDy=0;" parent="1" source="hsjAOOVRgnUJ8HUQptiA-36" target="hsjAOOVRgnUJ8HUQptiA-37" edge="1">
          <mxGeometry relative="1" as="geometry" />
        </mxCell>
        <mxCell id="hsjAOOVRgnUJ8HUQptiA-36" value="&lt;font style=&quot;font-size: 14px;&quot;&gt;持续读入单词最后形成一个字符串s，且保证单词大于10的部分不在写入s中&lt;/font&gt;" style="rounded=0;whiteSpace=wrap;html=1;" parent="1" vertex="1">
          <mxGeometry x="270" y="510" width="140" height="80" as="geometry" />
        </mxCell>
        <mxCell id="hsjAOOVRgnUJ8HUQptiA-48" style="edgeStyle=orthogonalEdgeStyle;rounded=0;orthogonalLoop=1;jettySize=auto;html=1;exitX=0.5;exitY=1;exitDx=0;exitDy=0;entryX=0.5;entryY=0;entryDx=0;entryDy=0;" parent="1" source="hsjAOOVRgnUJ8HUQptiA-37" target="hsjAOOVRgnUJ8HUQptiA-38" edge="1">
          <mxGeometry relative="1" as="geometry" />
        </mxCell>
        <mxCell id="hsjAOOVRgnUJ8HUQptiA-49" value="&lt;font style=&quot;font-size: 14px;&quot;&gt;true&lt;/font&gt;" style="edgeLabel;html=1;align=center;verticalAlign=middle;resizable=0;points=[];" parent="hsjAOOVRgnUJ8HUQptiA-48" vertex="1" connectable="0">
          <mxGeometry x="-0.2" y="3" relative="1" as="geometry">
            <mxPoint x="17" as="offset" />
          </mxGeometry>
        </mxCell>
        <mxCell id="hsjAOOVRgnUJ8HUQptiA-52" style="edgeStyle=orthogonalEdgeStyle;rounded=0;orthogonalLoop=1;jettySize=auto;html=1;exitX=1;exitY=0.5;exitDx=0;exitDy=0;" parent="1" source="hsjAOOVRgnUJ8HUQptiA-37" edge="1">
          <mxGeometry relative="1" as="geometry">
            <mxPoint x="340" y="880" as="targetPoint" />
            <Array as="points">
              <mxPoint x="440" y="650" />
              <mxPoint x="440" y="880" />
            </Array>
          </mxGeometry>
        </mxCell>
        <mxCell id="hsjAOOVRgnUJ8HUQptiA-53" value="&lt;font style=&quot;font-size: 14px;&quot;&gt;false&lt;/font&gt;" style="edgeLabel;html=1;align=center;verticalAlign=middle;resizable=0;points=[];" parent="hsjAOOVRgnUJ8HUQptiA-52" vertex="1" connectable="0">
          <mxGeometry x="-0.96" y="2" relative="1" as="geometry">
            <mxPoint y="-8" as="offset" />
          </mxGeometry>
        </mxCell>
        <mxCell id="hsjAOOVRgnUJ8HUQptiA-37" value="&lt;font style=&quot;font-size: 14px;&quot;&gt;单词s长度大于等于3&lt;/font&gt;" style="rhombus;whiteSpace=wrap;html=1;" parent="1" vertex="1">
          <mxGeometry x="260" y="610" width="160" height="80" as="geometry" />
        </mxCell>
        <mxCell id="hsjAOOVRgnUJ8HUQptiA-50" style="edgeStyle=orthogonalEdgeStyle;rounded=0;orthogonalLoop=1;jettySize=auto;html=1;exitX=0.5;exitY=1;exitDx=0;exitDy=0;entryX=0.5;entryY=0;entryDx=0;entryDy=0;" parent="1" source="hsjAOOVRgnUJ8HUQptiA-38" target="hsjAOOVRgnUJ8HUQptiA-39" edge="1">
          <mxGeometry relative="1" as="geometry" />
        </mxCell>
        <mxCell id="hsjAOOVRgnUJ8HUQptiA-38" value="&lt;font style=&quot;font-size: 14px;&quot;&gt;调用lowerCase函数&lt;/font&gt;" style="rounded=0;whiteSpace=wrap;html=1;" parent="1" vertex="1">
          <mxGeometry x="280" y="720" width="120" height="60" as="geometry" />
        </mxCell>
        <mxCell id="hsjAOOVRgnUJ8HUQptiA-51" style="edgeStyle=orthogonalEdgeStyle;rounded=0;orthogonalLoop=1;jettySize=auto;html=1;exitX=0.5;exitY=1;exitDx=0;exitDy=0;entryX=0.5;entryY=0;entryDx=0;entryDy=0;" parent="1" source="hsjAOOVRgnUJ8HUQptiA-39" target="hsjAOOVRgnUJ8HUQptiA-40" edge="1">
          <mxGeometry relative="1" as="geometry" />
        </mxCell>
        <mxCell id="hsjAOOVRgnUJ8HUQptiA-39" value="&lt;font style=&quot;font-size: 14px;&quot;&gt;将单词s插入到file[index]的set容器中的&lt;/font&gt;" style="rounded=0;whiteSpace=wrap;html=1;" parent="1" vertex="1">
          <mxGeometry x="280" y="800" width="120" height="60" as="geometry" />
        </mxCell>
        <mxCell id="hsjAOOVRgnUJ8HUQptiA-54" style="edgeStyle=orthogonalEdgeStyle;rounded=0;orthogonalLoop=1;jettySize=auto;html=1;exitX=0.5;exitY=1;exitDx=0;exitDy=0;" parent="1" source="hsjAOOVRgnUJ8HUQptiA-40" edge="1">
          <mxGeometry relative="1" as="geometry">
            <Array as="points">
              <mxPoint x="340" y="980" />
              <mxPoint x="250" y="980" />
              <mxPoint x="250" y="290" />
              <mxPoint x="280" y="290" />
            </Array>
            <mxPoint x="340" y="290" as="targetPoint" />
          </mxGeometry>
        </mxCell>
        <mxCell id="hsjAOOVRgnUJ8HUQptiA-40" value="&lt;font style=&quot;font-size: 14px;&quot;&gt;输入字符c&lt;/font&gt;" style="shape=parallelogram;perimeter=parallelogramPerimeter;whiteSpace=wrap;html=1;fixedSize=1;" parent="1" vertex="1">
          <mxGeometry x="280" y="900" width="120" height="60" as="geometry" />
        </mxCell>
        <mxCell id="hsjAOOVRgnUJ8HUQptiA-55" value="结束" style="rounded=1;whiteSpace=wrap;html=1;" parent="1" vertex="1">
          <mxGeometry x="290" y="1010" width="120" height="60" as="geometry" />
        </mxCell>
        <mxCell id="hsjAOOVRgnUJ8HUQptiA-58" value="&lt;font style=&quot;font-size: 14px;&quot;&gt;countRepeat函数&lt;/font&gt;：" style="text;html=1;align=center;verticalAlign=middle;resizable=0;points=[];autosize=1;strokeColor=none;fillColor=none;" parent="1" vertex="1">
          <mxGeometry x="520" width="140" height="30" as="geometry" />
        </mxCell>
        <mxCell id="hsjAOOVRgnUJ8HUQptiA-64" style="edgeStyle=orthogonalEdgeStyle;rounded=0;orthogonalLoop=1;jettySize=auto;html=1;exitX=0.5;exitY=1;exitDx=0;exitDy=0;entryX=0.5;entryY=0;entryDx=0;entryDy=0;" parent="1" source="hsjAOOVRgnUJ8HUQptiA-59" target="hsjAOOVRgnUJ8HUQptiA-61" edge="1">
          <mxGeometry relative="1" as="geometry" />
        </mxCell>
        <mxCell id="hsjAOOVRgnUJ8HUQptiA-59" value="&lt;font style=&quot;font-size: 14px;&quot;&gt;开始&lt;/font&gt;" style="rounded=1;whiteSpace=wrap;html=1;" parent="1" vertex="1">
          <mxGeometry x="530" y="40" width="120" height="60" as="geometry" />
        </mxCell>
        <mxCell id="hsjAOOVRgnUJ8HUQptiA-66" style="edgeStyle=orthogonalEdgeStyle;rounded=0;orthogonalLoop=1;jettySize=auto;html=1;exitX=0.5;exitY=1;exitDx=0;exitDy=0;entryX=0.5;entryY=0;entryDx=0;entryDy=0;" parent="1" source="hsjAOOVRgnUJ8HUQptiA-60" target="hsjAOOVRgnUJ8HUQptiA-62" edge="1">
          <mxGeometry relative="1" as="geometry" />
        </mxCell>
        <mxCell id="hsjAOOVRgnUJ8HUQptiA-60" value="&lt;font style=&quot;font-size: 14px;&quot;&gt;定义set容器temp&lt;/font&gt;" style="rounded=0;whiteSpace=wrap;html=1;" parent="1" vertex="1">
          <mxGeometry x="530" y="220" width="120" height="60" as="geometry" />
        </mxCell>
        <mxCell id="hsjAOOVRgnUJ8HUQptiA-65" style="edgeStyle=orthogonalEdgeStyle;rounded=0;orthogonalLoop=1;jettySize=auto;html=1;exitX=0.5;exitY=1;exitDx=0;exitDy=0;entryX=0.5;entryY=0;entryDx=0;entryDy=0;" parent="1" source="hsjAOOVRgnUJ8HUQptiA-61" target="hsjAOOVRgnUJ8HUQptiA-60" edge="1">
          <mxGeometry relative="1" as="geometry" />
        </mxCell>
        <mxCell id="hsjAOOVRgnUJ8HUQptiA-61" value="&lt;font style=&quot;font-size: 14px;&quot;&gt;接收形参n1，n2&lt;/font&gt;" style="rounded=0;whiteSpace=wrap;html=1;" parent="1" vertex="1">
          <mxGeometry x="530" y="130" width="120" height="60" as="geometry" />
        </mxCell>
        <mxCell id="hsjAOOVRgnUJ8HUQptiA-67" style="edgeStyle=orthogonalEdgeStyle;rounded=0;orthogonalLoop=1;jettySize=auto;html=1;exitX=0.5;exitY=1;exitDx=0;exitDy=0;entryX=0.5;entryY=0;entryDx=0;entryDy=0;" parent="1" source="hsjAOOVRgnUJ8HUQptiA-62" target="hsjAOOVRgnUJ8HUQptiA-63" edge="1">
          <mxGeometry relative="1" as="geometry" />
        </mxCell>
        <mxCell id="hsjAOOVRgnUJ8HUQptiA-62" value="&lt;font style=&quot;font-size: 14px;&quot;&gt;遍历file[n1]将每个元素插入到temp中&lt;/font&gt;" style="rounded=0;whiteSpace=wrap;html=1;" parent="1" vertex="1">
          <mxGeometry x="530" y="310" width="120" height="60" as="geometry" />
        </mxCell>
        <mxCell id="hsjAOOVRgnUJ8HUQptiA-71" style="edgeStyle=orthogonalEdgeStyle;rounded=0;orthogonalLoop=1;jettySize=auto;html=1;exitX=0.5;exitY=1;exitDx=0;exitDy=0;entryX=0.5;entryY=0;entryDx=0;entryDy=0;" parent="1" source="hsjAOOVRgnUJ8HUQptiA-63" target="hsjAOOVRgnUJ8HUQptiA-68" edge="1">
          <mxGeometry relative="1" as="geometry" />
        </mxCell>
        <mxCell id="hsjAOOVRgnUJ8HUQptiA-63" value="&lt;font style=&quot;font-size: 14px;&quot;&gt;遍历file[n2]将每个元素插入到temp中&lt;/font&gt;" style="rounded=0;whiteSpace=wrap;html=1;" parent="1" vertex="1">
          <mxGeometry x="530" y="395" width="120" height="60" as="geometry" />
        </mxCell>
        <mxCell id="hsjAOOVRgnUJ8HUQptiA-72" style="edgeStyle=orthogonalEdgeStyle;rounded=0;orthogonalLoop=1;jettySize=auto;html=1;exitX=0.5;exitY=1;exitDx=0;exitDy=0;entryX=0.5;entryY=0;entryDx=0;entryDy=0;" parent="1" source="hsjAOOVRgnUJ8HUQptiA-68" target="hsjAOOVRgnUJ8HUQptiA-69" edge="1">
          <mxGeometry relative="1" as="geometry" />
        </mxCell>
        <mxCell id="hsjAOOVRgnUJ8HUQptiA-68" value="&lt;font style=&quot;font-size: 14px;&quot;&gt;计算两文件的相似度&lt;/font&gt;" style="rounded=0;whiteSpace=wrap;html=1;" parent="1" vertex="1">
          <mxGeometry x="530" y="490" width="120" height="60" as="geometry" />
        </mxCell>
        <mxCell id="hsjAOOVRgnUJ8HUQptiA-73" style="edgeStyle=orthogonalEdgeStyle;rounded=0;orthogonalLoop=1;jettySize=auto;html=1;exitX=0.5;exitY=1;exitDx=0;exitDy=0;entryX=0.5;entryY=0;entryDx=0;entryDy=0;" parent="1" source="hsjAOOVRgnUJ8HUQptiA-69" target="hsjAOOVRgnUJ8HUQptiA-70" edge="1">
          <mxGeometry relative="1" as="geometry" />
        </mxCell>
        <mxCell id="hsjAOOVRgnUJ8HUQptiA-69" value="&lt;font style=&quot;font-size: 14px;&quot;&gt;输出相似度&lt;/font&gt;" style="shape=parallelogram;perimeter=parallelogramPerimeter;whiteSpace=wrap;html=1;fixedSize=1;" parent="1" vertex="1">
          <mxGeometry x="525" y="580" width="130" height="60" as="geometry" />
        </mxCell>
        <mxCell id="hsjAOOVRgnUJ8HUQptiA-70" value="&lt;font style=&quot;font-size: 14px;&quot;&gt;结束&lt;/font&gt;" style="rounded=1;whiteSpace=wrap;html=1;" parent="1" vertex="1">
          <mxGeometry x="530" y="670" width="120" height="60" as="geometry" />
        </mxCell>
      </root>
    </mxGraphModel>
  </diagram>
</mxfile>
